# Blender 4.5.3 LTS
# www.blender.org
o scene
v -1.000000 0.003796 0.650000
v 1.000000 0.003796 0.650000
v -0.600000 -0.580143 0.806419
v 0.600000 -0.580143 0.806419
v -0.600000 0.601627 1.014796
v 0.600000 0.601627 1.014796
v -1.000000 0.003796 -0.000000
v -0.000000 0.003796 0.650000
v -0.600000 0.010742 0.910607
v -0.000000 -0.580143 0.806419
v 0.600000 0.010742 0.910607
v -0.000000 0.601627 1.014796
v 0.000000 0.003796 -0.000000
v 0.000000 0.010742 0.910607
v -1.000000 0.003796 -0.650000
v 1.000000 0.003796 -0.650000
v -0.600000 -0.580143 -0.806419
v 0.600000 -0.580143 -0.806419
v -0.600000 0.601627 -1.014796
v 0.600000 0.601627 -1.014796
v 1.000000 0.003796 0.000000
v -0.000000 0.003796 -0.650000
v -0.600000 0.010742 -0.910607
v -0.000000 -0.580143 -0.806419
v 0.600000 0.010742 -0.910607
v -0.000000 0.601627 -1.014796
v 0.000000 0.010742 -0.910607
vn -0.0000 1.0000 -0.0000
vn -0.0000 0.1736 -0.9848
vn -0.0000 0.1736 0.9848
vt 0.259994 0.399904
vt 0.259993 0.799647
vt 0.000160 0.799647
vt 0.000160 0.399904
vt 0.259994 0.000160
vt 0.000160 0.000160
vt 0.520148 0.480173
vt 0.759993 0.480173
vt 0.759993 0.720019
vt 0.520148 0.720019
vt 0.999839 0.480173
vt 0.999839 0.720019
vt 0.999839 0.959865
vt 0.759993 0.959865
vt 0.520148 0.959865
vt 0.519827 0.399904
vt 0.519827 0.799647
vt 0.519827 0.000160
vt 0.520148 0.479853
vt 0.520148 0.240007
vt 0.759993 0.240007
vt 0.759993 0.479852
vt 0.999839 0.240006
vt 0.999840 0.479852
vt 0.759993 0.000160
vt 0.999840 0.000160
vt 0.520147 0.000161
s 1
f 13/1/1 8/4/1 2/3/1 21/2/1
f 7/5/1 1/6/1 8/4/1 13/1/1
f 3/7/2 9/10/2 14/9/2 10/8/2
f 10/8/2 14/9/2 11/12/2 4/11/2
f 14/9/2 12/14/2 6/13/2 11/12/2
f 9/10/2 5/15/2 12/14/2 14/9/2
f 13/1/1 21/2/1 16/17/1 22/16/1
f 7/5/1 13/1/1 22/16/1 15/18/1
f 17/19/3 24/22/3 27/21/3 23/20/3
f 24/22/3 18/24/3 25/23/3 27/21/3
f 27/21/3 25/23/3 20/26/3 26/25/3
f 23/20/3 27/21/3 26/25/3 19/27/3
